<?xml version="1.0" encoding="utf-8"?>
<!-- Generator: Adobe Illustrator 27.2.0, SVG Export Plug-In . SVG Version: 6.00 Build 0)  -->
<svg version="1.0" id="Ebene_1" xmlns="http://www.w3.org/2000/svg" xmlns:xlink="http://www.w3.org/1999/xlink" x="0px" y="0px"
	 viewBox="0 0 60 60" enable-background="new 0 0 60 60" xml:space="preserve">
<g>
	<path fill="#00348A" d="M10.974,40.702c-0.362-0.628-0.838-1.143-1.428-1.547s-1.245-0.626-1.966-0.667s-1.448,0.15-2.18,0.573
		c-1.116,0.644-1.774,1.512-1.973,2.604c-0.199,1.091-0.013,2.131,0.557,3.119c0.577,1,1.387,1.683,2.428,2.051
		s2.12,0.229,3.236-0.415c1.081-0.624,1.718-1.48,1.912-2.568C11.753,42.763,11.557,41.714,10.974,40.702"/>
	<path fill="#00348A" d="M47.555,13.955c-0.386,0.781-0.565,1.632-0.537,2.553c0.028,0.922,0.267,1.772,0.717,2.55
		c0.785,1.36,1.845,2.256,3.179,2.687s2.611,0.294,3.832-0.411c1.376-0.794,2.313-1.866,2.811-3.213
		c-0.544-1.26-1.171-2.475-1.875-3.638l-3.176,5.75l-3.831-2.206l3.262-6.068c-1.065-0.315-2.011-0.234-2.836,0.242
		C48.438,12.585,47.923,13.17,47.555,13.955"/>
	<path fill="#00348A" d="M41.758,34.647l-5.608-9.712c-0.469-0.814-1.022-1.394-1.656-1.741c-0.634-0.346-1.329-0.302-2.085,0.134
		c-1.476,0.853-1.61,2.325-0.402,4.417l5.426,9.398l-5.388,3.111l-5.567-9.643c-0.47-0.814-1.037-1.393-1.701-1.738
		c-0.664-0.345-1.362-0.306-2.095,0.117c-1.43,0.825-1.574,2.226-0.433,4.203l5.507,9.538l-5.527,3.191l-5.98-10.358
		c-0.751-1.302-1.228-2.414-1.427-3.338c-0.2-0.923-0.153-1.896,0.141-2.918c0.26-1.08,0.765-2.084,1.515-3.014
		c0.769-0.924,1.687-1.695,2.757-2.312c1.069-0.617,2.189-1,3.359-1.149c1.17-0.148,2.269-0.016,3.298,0.397
		c0.203-1.124,0.675-2.18,1.416-3.166c0.741-0.985,1.64-1.784,2.698-2.394c1.034-0.597,2.134-0.968,3.298-1.114
		c1.164-0.145,2.272-0.017,3.325,0.382c1.762,0.502,3.264,1.828,4.506,3.978l6.101,10.567L41.758,34.647z M57.206,26.402
		c-1.686,0.973-3.474,1.46-5.366,1.459s-3.654-0.471-5.289-1.41c-1.635-0.939-2.939-2.252-3.912-3.937
		c-0.986-1.709-1.485-3.505-1.496-5.39c-0.011-1.884,0.459-3.64,1.411-5.267s2.294-2.94,4.026-3.94
		c0.821-0.474,1.658-0.826,2.511-1.059C43.903,2.573,37.252,0,30,0C13.431,0,0,13.431,0,30c0,1.646,0.133,3.261,0.388,4.834
		c0.552-0.485,1.159-0.919,1.82-1.301c1.674-0.967,3.456-1.449,5.348-1.449c1.891,0.001,3.659,0.472,5.303,1.414
		s2.953,2.255,3.926,3.941c0.967,1.674,1.445,3.456,1.435,5.345s-0.489,3.65-1.438,5.282c-0.946,1.663-2.25,2.974-3.912,3.934
		c-0.705,0.407-1.429,0.729-2.17,0.968C15.917,57.356,22.649,60,30,60c4.632,0,9.018-1.05,12.934-2.924
		C41.121,55.266,40,52.764,40,50.001C40,44.477,44.477,40,50,40c2.764,0,5.266,1.121,7.076,2.934C58.95,39.018,60,34.632,60,30
		c0-1.826-0.163-3.613-0.476-5.349C58.858,25.31,58.086,25.894,57.206,26.402"/>
</g>
</svg>
